<svg xmlns="http://www.w3.org/2000/svg" xmlns:xlink="http://www.w3.org/1999/xlink" width="500" zoomAndPan="magnify" viewBox="0 0 375 374.999991" height="500" preserveAspectRatio="xMidYMid meet" version="1.0"><defs><g/><clipPath id="576ddb9017"><path d="M 26.605469 27.058594 L 348.742188 27.058594 L 348.742188 347.941406 L 26.605469 347.941406 Z M 26.605469 27.058594 " clip-rule="nonzero"/></clipPath><clipPath id="66fbad09eb"><path d="M 43.855469 27.058594 L 331.144531 27.058594 C 335.722656 27.058594 340.109375 28.875 343.34375 32.109375 C 346.578125 35.34375 348.394531 39.734375 348.394531 44.308594 L 348.394531 330.691406 C 348.394531 335.265625 346.578125 339.65625 343.34375 342.890625 C 340.109375 346.125 335.722656 347.941406 331.144531 347.941406 L 43.855469 347.941406 C 39.277344 347.941406 34.890625 346.125 31.65625 342.890625 C 28.421875 339.65625 26.605469 335.265625 26.605469 330.691406 L 26.605469 44.308594 C 26.605469 39.734375 28.421875 35.34375 31.65625 32.109375 C 34.890625 28.875 39.277344 27.058594 43.855469 27.058594 Z M 43.855469 27.058594 " clip-rule="nonzero"/></clipPath></defs><g clip-path="url(#576ddb9017)"><g clip-path="url(#66fbad09eb)"><path fill="#3f0538" d="M 26.605469 27.058594 L 348.742188 27.058594 L 348.742188 347.941406 L 26.605469 347.941406 Z M 26.605469 27.058594 " fill-opacity="1" fill-rule="nonzero"/></g></g><g fill="#fdeae7" fill-opacity="1"><g transform="translate(64.565698, 282.661438)"><g><path d="M 41.734375 -235.140625 C 53.097656 -235.140625 65.148438 -234.351562 77.890625 -232.78125 C 90.628906 -231.21875 102.972656 -228.179688 114.921875 -223.671875 C 126.878906 -219.171875 137.707031 -212.609375 147.40625 -203.984375 C 157.101562 -195.359375 164.84375 -184.039062 170.625 -170.03125 C 176.40625 -156.019531 179.296875 -138.53125 179.296875 -117.5625 C 179.296875 -97.382812 176.453125 -80.390625 170.765625 -66.578125 C 165.085938 -52.765625 157.445312 -41.492188 147.84375 -32.765625 C 138.238281 -24.046875 127.410156 -17.285156 115.359375 -12.484375 C 103.304688 -7.691406 90.960938 -4.410156 78.328125 -2.640625 C 65.691406 -0.878906 53.492188 0 41.734375 0 L 3.234375 0 C 1.078125 0 0 -0.878906 0 -2.640625 L 0 -94.9375 L 44.96875 -94.9375 L 44.96875 -43.203125 C 50.65625 -43.003906 57.316406 -43.148438 64.953125 -43.640625 C 72.597656 -44.128906 80.4375 -45.597656 88.46875 -48.046875 C 96.5 -50.503906 103.992188 -54.378906 110.953125 -59.671875 C 117.910156 -64.960938 123.492188 -72.304688 127.703125 -81.703125 C 131.921875 -91.109375 134.03125 -103.0625 134.03125 -117.5625 C 134.03125 -136.175781 130.160156 -151.117188 122.421875 -162.390625 C 114.679688 -173.660156 104.097656 -181.691406 90.671875 -186.484375 C 77.253906 -191.285156 62.019531 -193.195312 44.96875 -192.21875 L 44.96875 -140.203125 L 0 -140.203125 L 0 -232.5 C 0 -234.257812 1.078125 -235.140625 3.234375 -235.140625 Z M 41.734375 -235.140625 "/></g></g></g><g fill="#fdeae7" fill-opacity="1"><g transform="translate(183.682243, 312.955689)"><g><path d="M 96.328125 -150.375 L 131.890625 -150.375 L 74.140625 -1.15625 C 73.835938 -0.382812 73.144531 0 72.0625 0 C 70.988281 0 70.21875 -0.382812 69.75 -1.15625 L 0.234375 -182.015625 C -0.078125 -182.785156 -0.0390625 -183.4375 0.34375 -183.96875 C 0.726562 -184.507812 1.382812 -184.78125 2.3125 -184.78125 L 33.71875 -184.78125 C 35.101562 -184.78125 35.875 -184.320312 36.03125 -183.40625 L 72.0625 -82.6875 Z M 96.328125 -150.375 "/></g></g></g></svg>